<svg xmlns="http://www.w3.org/2000/svg" width="30" height="30" viewBox="0 0 30 30" fill="none">
<!-- 科技感机器人头部 -->
<circle cx="15" cy="15" r="11" fill="url(#paint0_linear_477_9132)" stroke="url(#paint1_linear_477_9132)" stroke-width="0.5"/>

<!-- 科技感天线 -->
<path d="M15 4L15 6" stroke="#6366F1" stroke-width="1.5" stroke-linecap="round"/>
<circle cx="15" cy="3" r="1.5" fill="#6366F1"/>

<!-- 左右天线装饰 -->
<path d="M7 8L5 6" stroke="#818CF8" stroke-width="1" stroke-linecap="round"/>
<circle cx="4.5" cy="5.5" r="0.8" fill="#818CF8"/>
<path d="M23 8L25 6" stroke="#818CF8" stroke-width="1" stroke-linecap="round"/>
<circle cx="25.5" cy="5.5" r="0.8" fill="#818CF8"/>

<!-- 机器人眼睛 -->
<circle cx="11" cy="13" r="2" fill="#FFFFFF"/>
<circle cx="19" cy="13" r="2" fill="#FFFFFF"/>
<circle cx="11" cy="13" r="1.2" fill="#6366F1"/>
<circle cx="19" cy="13" r="1.2" fill="#6366F1"/>

<!-- 机器人嘴巴 -->
<path d="M10 19C12 21 18 21 20 19" stroke="#FFFFFF" stroke-width="1.5" stroke-linecap="round" fill="none"/>

<!-- 科技感装饰线条 -->
<path d="M6 15L4 15" stroke="#A78BFA" stroke-width="1" stroke-linecap="round"/>
<path d="M26 15L24 15" stroke="#A78BFA" stroke-width="1" stroke-linecap="round"/>
<path d="M15 26L15 24" stroke="#A78BFA" stroke-width="1" stroke-linecap="round"/>

<!-- 额外的科技装饰点 -->
<circle cx="8" cy="11" r="0.5" fill="#C4B5FD"/>
<circle cx="22" cy="11" r="0.5" fill="#C4B5FD"/>
<circle cx="8" cy="19" r="0.5" fill="#C4B5FD"/>
<circle cx="22" cy="19" r="0.5" fill="#C4B5FD"/>

<defs>
<linearGradient id="paint0_linear_477_9132" x1="6.6502" y1="4.44097" x2="25.0992" y2="29.2491" gradientUnits="userSpaceOnUse">
<stop stop-color="#E0E7FF"/>
<stop offset="0.181" stop-color="#C7D2FE"/>
<stop offset="0.371" stop-color="#A5B4FC"/>
<stop offset="0.554" stop-color="#818CF8"/>
<stop offset="0.724" stop-color="#6366F1"/>
<stop offset="0.878" stop-color="#4F46E5"/>
<stop offset="1" stop-color="#4338CA"/>
</linearGradient>
<linearGradient id="paint1_linear_477_9132" x1="6.6502" y1="4.44097" x2="25.0992" y2="29.2491" gradientUnits="userSpaceOnUse">
<stop stop-color="#6366F1"/>
<stop offset="0.5" stop-color="#8B5CF6"/>
<stop offset="1" stop-color="#A855F7"/>
</linearGradient>
</defs>
</svg>
