<svg xmlns="http://www.w3.org/2000/svg" width="131" height="30" viewBox="0 0 131 30" fill="none">
<g clip-path="url(#clip0_477_6686)">
<!-- 科技感机器人头部 -->
<circle cx="15" cy="15" r="11" fill="url(#paint0_linear_477_6686)" stroke="url(#paint1_linear_477_6686)" stroke-width="0.5"/>

<!-- 科技感天线 -->
<path d="M15 4L15 6" stroke="#6366F1" stroke-width="1.5" stroke-linecap="round"/>
<circle cx="15" cy="3" r="1.5" fill="#6366F1"/>

<!-- 左右天线装饰 -->
<path d="M7 8L5 6" stroke="#818CF8" stroke-width="1" stroke-linecap="round"/>
<circle cx="4.5" cy="5.5" r="0.8" fill="#818CF8"/>
<path d="M23 8L25 6" stroke="#818CF8" stroke-width="1" stroke-linecap="round"/>
<circle cx="25.5" cy="5.5" r="0.8" fill="#818CF8"/>

<!-- 科技感眼睛 - 发光效果 -->
<circle cx="11" cy="13" r="2.5" fill="#6366F1" opacity="0.3"/>
<circle cx="11" cy="13" r="1.5" fill="#A78BFA"/>
<circle cx="11.5" cy="12.5" r="0.5" fill="#FFFFFF"/>

<circle cx="19" cy="13" r="2.5" fill="#6366F1" opacity="0.3"/>
<circle cx="19" cy="13" r="1.5" fill="#A78BFA"/>
<circle cx="19.5" cy="12.5" r="0.5" fill="#FFFFFF"/>

<!-- W字形核心能量标识 -->
<path d="M9 17.5L10.5 22L12.5 18.5L14.5 22L16.5 18.5L18.5 22L20 17.5" stroke="#A78BFA" stroke-width="1.5" stroke-linecap="round" stroke-linejoin="round" fill="none" opacity="0.9"/>
<path d="M9 17.5L10.5 22L12.5 18.5L14.5 22L16.5 18.5L18.5 22L20 17.5" stroke="#FFFFFF" stroke-width="0.8" stroke-linecap="round" stroke-linejoin="round" fill="none" opacity="0.6"/>

<!-- 科技电路纹理 -->
<path d="M6 15L8 15M22 15L24 15" stroke="#818CF8" stroke-width="0.8" opacity="0.6"/>
<path d="M8 10L6 12M22 10L24 12" stroke="#818CF8" stroke-width="0.8" opacity="0.6"/>
<path d="M8 20L6 18M22 20L24 18" stroke="#818CF8" stroke-width="0.8" opacity="0.6"/>

<!-- 底部科技装饰 -->
<path d="M10 24C10 24 12 25.5 15 25.5C18 25.5 20 24 20 24" stroke="#818CF8" stroke-width="1.2" stroke-linecap="round" fill="none"/>
<rect x="13" y="25" width="4" height="1" rx="0.5" fill="#6366F1"/>

<!-- 左右科技装饰 -->
<path d="M4.5 15C4.5 15 3 15 3 13C3 11 4.5 11 4.5 11" stroke="#A78BFA" stroke-width="1" fill="none" opacity="0.7"/>
<path d="M25.5 15C25.5 15 27 15 27 13C27 11 25.5 11 25.5 11" stroke="#A78BFA" stroke-width="1" fill="none" opacity="0.7"/>

<!-- 能量点缀 -->
<circle cx="7" cy="15" r="0.5" fill="#A78BFA" opacity="0.8"/>
<circle cx="23" cy="15" r="0.5" fill="#A78BFA" opacity="0.8"/>
<circle cx="15" cy="8" r="0.5" fill="#A78BFA" opacity="0.8"/>
<circle cx="15" cy="23" r="0.5" fill="#A78BFA" opacity="0.8"/>

<!-- S 字母 -->
<path d="M49.9855 14.2255C49.5648 13.7479 48.9791 13.3311 48.2457 12.9865C47.5234 12.648 46.5864 12.338 45.46 12.065C44.7797 11.904 44.2248 11.75 43.8106 11.6085C43.4064 11.4708 43.0957 11.3205 42.887 11.1612C42.7118 11.039 42.5779 10.8663 42.5032 10.666C42.4319 10.4299 42.3986 10.184 42.4043 9.93742C42.4043 9.20599 42.6086 8.73468 43.0291 8.49633C43.4773 8.24209 44.2263 8.11322 45.2553 8.11322C45.6439 8.11322 46.0627 8.13121 46.5001 8.16684C46.9356 8.20275 47.3727 8.25693 47.799 8.32784C48.2288 8.39973 48.6265 8.47666 48.9812 8.55653C49.3329 8.63584 49.6291 8.71221 49.8618 8.78361L50.0994 8.85648V5.08593L49.9775 5.04239C49.4622 4.85836 48.7815 4.69582 47.9542 4.55939C47.0074 4.41387 46.0505 4.34497 45.0928 4.35338C42.8788 4.35338 41.1341 4.78913 39.9072 5.64838C38.6596 6.52191 38.0271 8.0015 38.0271 10.0461C38.0271 10.9094 38.1114 11.6474 38.2778 12.2396C38.4364 12.8257 38.7411 13.3617 39.1632 13.7974C39.5756 14.2203 40.1291 14.5809 40.8077 14.8693C41.4737 15.1529 42.3272 15.4165 43.3413 15.6519C43.9259 15.7923 44.503 15.9624 45.0703 16.1617C45.4914 16.3167 45.8201 16.4892 46.0471 16.6743C46.2471 16.829 46.4008 17.0357 46.4914 17.2719C46.5811 17.5499 46.6233 17.841 46.6163 18.1329C46.625 18.4706 46.5739 18.8071 46.4654 19.1269C46.3721 19.3796 46.2014 19.5962 45.9776 19.7457C45.7388 19.9107 45.4171 20.0284 45.0215 20.0957C44.5162 20.1728 44.0054 20.2083 43.4943 20.2017C43.0129 20.2017 42.5217 20.179 42.0341 20.1345C41.5428 20.0901 41.0578 20.0356 40.5925 19.9726C40.1271 19.9096 39.6864 19.8334 39.2793 19.7445C38.9292 19.6721 38.5846 19.5748 38.2482 19.4535L38 19.3602V23.3743L38.1339 23.412C38.7177 23.5765 39.5139 23.7334 40.5008 23.8783C41.5461 24.0276 42.6009 24.1008 43.6569 24.0974C46.2731 24.0974 48.1823 23.5939 49.3314 22.6008C50.4884 21.6011 51.075 20.1345 51.075 18.2417C51.075 17.3461 51.0005 16.5698 50.8534 15.9342C50.7116 15.3008 50.4132 14.7132 49.9855 14.2255Z" fill="#485559"/>

<!-- Q 字母 - 更靠近L -->
<path d="M62 4.35324C60.6362 4.35324 59.3984 4.5015 58.3212 4.79382C57.2282 5.09076 56.2979 5.6229 55.5561 6.37533C54.8159 7.1258 54.2447 8.15102 53.8582 9.42257C53.4754 10.6826 53.2813 12.2982 53.2813 14.2251C53.2813 16.134 53.4708 17.7403 53.8443 18.9991C54.2212 20.2704 54.7832 21.2958 55.5148 22.0466C56.2658 22.8099 57.2053 23.3604 58.2378 23.6419C59.5052 24.0125 60.8199 24.1956 62.1401 24.1854C63.8118 24.1854 66.7217 23.705 67.9526 22.5242C68.5072 21.9922 69.0696 21.4276 69.4772 20.6762C69.8816 19.9301 70.1933 19.0133 70.4037 17.9512C70.6128 16.8942 70.7188 15.6402 70.7188 14.2248C70.7188 12.2993 70.5293 10.6839 70.1557 9.42341C69.7783 8.15221 69.2114 7.12657 68.4709 6.37533C67.7287 5.6229 66.7985 5.09076 65.7059 4.79382C64.6282 4.5015 63.3813 4.35324 62 4.35324ZM59.9572 8.41121C60.4744 8.19547 61.1617 8.08613 62 8.08613C62.8383 8.08613 63.5307 8.19561 64.0572 8.41156C64.558 8.61289 64.9793 8.97264 65.2569 9.43601C65.5494 9.91901 65.7554 10.5576 65.869 11.3346C65.995 12.2929 66.0532 13.259 66.0432 14.2256C66.0432 15.3682 65.9846 16.3452 65.8691 17.1294C65.7557 17.8966 65.5503 18.5209 65.2586 18.985C64.9766 19.4352 64.5557 19.7811 64.0597 19.9702C63.5326 20.1779 62.8396 20.2831 62 20.2831C61.1605 20.2831 60.4724 20.1781 59.9548 19.9706C59.4636 19.7788 59.0474 19.4331 58.7685 18.985C58.4764 18.5208 58.271 17.8965 58.158 17.1294C58.0425 16.3481 57.9839 15.3711 57.9839 14.2256C57.9737 13.259 58.0319 12.2929 58.1581 11.3346C58.2713 10.5576 58.4772 9.91894 58.7701 9.43601C59.0448 8.97487 59.4613 8.61531 59.9572 8.41121Z" fill="#485559"/>
<!-- Q的尾巴 -->
<path d="M64.5 19.5L68 23.5" stroke="#485559" stroke-width="1.8" stroke-linecap="round"/>
<circle cx="68.3" cy="23.8" r="0.8" fill="#485559"/>

<!-- L 字母 - 紧凑排列 -->
<path d="M75.9823 4.62463H71.4965V23.8256H83.4606V19.8755H75.9823V4.62463Z" fill="#485559"/>

<!-- A 字母 - 增大间距 -->
<path d="M97 4.62463H92.7L87 23.8256H91.6L92.7 20.5H97.1L98.2 23.8256H102.8L97 4.62463ZM93.6 17.2L94.9 12.5L96.2 17.2H93.6Z" fill="#485559"/>

<!-- I 字母 -->
<path d="M105 4.62463H109.5V23.8256H105V4.62463Z" fill="#485559"/>
</g>
<defs>
<linearGradient id="paint0_linear_477_6686" x1="6.65018" y1="4.44097" x2="25.0992" y2="29.2491" gradientUnits="userSpaceOnUse">
<stop stop-color="#A78BFA"/>
<stop offset="0.3" stop-color="#818CF8"/>
<stop offset="0.6" stop-color="#6366F1"/>
<stop offset="1" stop-color="#4F46E5"/>
</linearGradient>
<linearGradient id="paint1_linear_477_6686" x1="6.65018" y1="4.44097" x2="25.0992" y2="29.2491" gradientUnits="userSpaceOnUse">
<stop stop-color="#A78BFA"/>
<stop offset="0.3" stop-color="#818CF8"/>
<stop offset="0.6" stop-color="#6366F1"/>
<stop offset="1" stop-color="#4F46E5"/>
</linearGradient>
<clipPath id="clip0_477_6686">
<rect width="131" height="30" fill="white"/>
</clipPath>
</defs>
</svg>